<svg xmlns="http://www.w3.org/2000/svg" width="32" height="32" viewBox="0 0 32 32" fill="none">
  <rect x="1" y="1" width="30" height="30" rx="7" fill="#E0F2FE"/>
  <path d="M16 7
           c -3 0 -5 1.5 -6 1.5
           c -1.5 0 -3 1.5 -3 4.5
           c 0 2.5 1 4 1.5 6
           c 0.5 2 0.5 4.5 2 5.5
           c 1 0.5 1.5 -1.5 2 -3.5
           c 0.5 -1.5 1 -2.5 1.5 -2.5
           c 0.5 0 1 1 1.5 2.5
           c 0.5 2 1 4 2 3.5
           c 1.5 -1 1.5 -3.5 2 -5.5
           c 0.5 -2 1.5 -3.5 1.5 -6
           c 0 -3 -1.5 -4.5 -3 -4.5
           c -1 0 -3 -1.5 -6 -1.5 Z"
        fill="#FFFFFF"
        stroke="#0EA5E9"
        stroke-width="1.6"
        stroke-linejoin="round"
        stroke-linecap="round"/>
  <circle cx="16" cy="13.5" r="2" fill="#0EA5E9"/>
</svg>
