<svg xmlns="http://www.w3.org/2000/svg" width="48" height="48" viewBox="0 0 48 48" fill="none" role="img" aria-label="DentalPin mark">
  <!-- Transparent mark (no backdrop) — for dark surfaces or compact headers -->
  <path d="M24 10
           c -4.5 0 -7.5 2.2 -9 2.2
           c -2.3 0 -4.5 2.2 -4.5 6.7
           c 0 3.8 1.5 6 2.3 9
           c 0.8 3 0.8 6.7 3 8.3
           c 1.5 0.8 2.3 -2.2 3 -5.3
           c 0.8 -2.3 1.5 -3.7 2.3 -3.7
           c 0.7 0 1.4 1.4 2.3 3.7
           c 0.7 3.1 1.5 6.1 3 5.3
           c 2.2 -1.6 2.2 -5.3 3 -8.3
           c 0.7 -3 2.2 -5.2 2.2 -9
           c 0 -4.5 -2.2 -6.7 -4.5 -6.7
           c -1.5 0 -4.5 -2.2 -9 -2.2 Z"
        fill="none"
        stroke="currentColor"
        stroke-width="2"
        stroke-linejoin="round"
        stroke-linecap="round"/>
  <circle cx="24" cy="19.5" r="2.8" fill="currentColor"/>
</svg>
