<svg xmlns="http://www.w3.org/2000/svg" width="220" height="56" viewBox="0 0 220 56" fill="none" role="img" aria-label="DentalPin">
  <!-- Mark -->
  <g transform="translate(4,4)">
    <rect x="0" y="0" width="48" height="48" rx="11" fill="#E0F2FE"/>
    <rect x="0" y="0" width="48" height="48" rx="11" stroke="#0EA5E9" stroke-opacity="0.18" stroke-width="1"/>
    <path d="M24 10
             c -4.5 0 -7.5 2.2 -9 2.2
             c -2.3 0 -4.5 2.2 -4.5 6.7
             c 0 3.8 1.5 6 2.3 9
             c 0.8 3 0.8 6.7 3 8.3
             c 1.5 0.8 2.3 -2.2 3 -5.3
             c 0.8 -2.3 1.5 -3.7 2.3 -3.7
             c 0.7 0 1.4 1.4 2.3 3.7
             c 0.7 3.1 1.5 6.1 3 5.3
             c 2.2 -1.6 2.2 -5.3 3 -8.3
             c 0.7 -3 2.2 -5.2 2.2 -9
             c 0 -4.5 -2.2 -6.7 -4.5 -6.7
             c -1.5 0 -4.5 -2.2 -9 -2.2 Z"
          fill="#FFFFFF"
          stroke="#0EA5E9"
          stroke-width="1.8"
          stroke-linejoin="round"
          stroke-linecap="round"/>
    <circle cx="24" cy="19.5" r="2.6" fill="#0EA5E9"/>
    <circle cx="24" cy="19.5" r="0.9" fill="#FFFFFF"/>
  </g>

  <!-- Wordmark: Inter-like, 600/700 split for emphasis on "Pin" -->
  <g transform="translate(66,37)" font-family="Inter, -apple-system, system-ui, 'Segoe UI', Helvetica, Arial" font-size="22" letter-spacing="-0.4">
    <text x="0" y="0" fill="#0F1116" fill-opacity="0.92" font-weight="600">Dental</text>
    <text x="77" y="0" fill="#0EA5E9" font-weight="700">Pin</text>
  </g>
</svg>
